<?xml version="1.0" encoding="utf-8"?><svg xml:space="preserve" viewBox="0 0 100 100" y="0" x="0" xmlns="http://www.w3.org/2000/svg" id="圖層_1" version="1.1" width="47px" height="47px" xmlns:xlink="http://www.w3.org/1999/xlink" style="width:100%;shape-rendering:crispedges;height:100%;background-size:initial;background-repeat-y:initial;background-repeat-x:initial;background-position-y:initial;background-position-x:initial;background-origin:initial;background-image:initial;background-color:rgb(255, 255, 255);background-clip:initial;background-attachment:initial;animation-play-state:paused" ><g class="ldl-scale" style="transform-origin:50% 50%;transform:rotate(0deg) scale(0.8, 0.8);animation-play-state:paused" ><path stroke-miterlimit="10" stroke-width="3.5" stroke="#333" fill="#fff" d="M89.9 34.3c-1-8.6-7.6-15.7-16.1-17.4-4.5-.9-8.7-.2-12.3 1.5-3.1-5.1-8.6-8.5-15-8.5-7.3 0-13.5 4.5-16.1 10.8-2.8-.7-5.9-.7-9.1.5-6.8 2.5-11.4 8.7-11.3 15.9.2 8.9 7.4 16.1 16.3 16.2v32.3c0 2.4 2 4.4 4.4 4.4h36.4c2.4 0 4.4-2 4.4-4.4V56.9C82.7 56 91.2 46 89.9 34.3z" style="stroke:rgb(51, 51, 51);fill:rgb(255, 255, 255);animation-play-state:paused" ></path>
<path stroke-miterlimit="10" stroke-width="3.5" stroke="#333" fill="#fff" d="M34 51.5c-2.2 1.1-4.8 1.8-7.5 1.8" style="stroke:rgb(51, 51, 51);fill:rgb(255, 255, 255);animation-play-state:paused" ></path>
<path stroke-miterlimit="10" stroke-width="3.5" stroke="#333" fill="#fff" d="M62.5 55.6c2.3.9 4.7 1.4 7.3 1.4.6 0 1.1 0 1.7-.1" style="stroke:rgb(51, 51, 51);fill:rgb(255, 255, 255);animation-play-state:paused" ></path>
<path d="M40 66.2v13.9" stroke-miterlimit="10" stroke-linecap="round" stroke-width="3.5" stroke="#333" fill="none" style="stroke:rgb(51, 51, 51);animation-play-state:paused" ></path>
<path d="M57.2 66.2v13.9" stroke-miterlimit="10" stroke-linecap="round" stroke-width="3.5" stroke="#333" fill="none" style="stroke:rgb(51, 51, 51);animation-play-state:paused" ></path>
<metadata xmlns:d="https://loading.io/stock/" style="animation-play-state:paused" ><d:name style="animation-play-state:paused" >chef</d:name>
<d:tags style="animation-play-state:paused" >chef,cook,yummy,restaurant,kitchen,dish,gourment,dinner,food,cuisine</d:tags>
<d:license style="animation-play-state:paused" >by</d:license>
<d:slug style="animation-play-state:paused" >y21zj3</d:slug></metadata></g><!-- generated by https://loading.io/ --></svg>